# xmcd
# 
# Track frame offsets:
#     150
#     25694
#     42356
#     56854
#     77728
#     92686
#     121817
#     140957
#     155673
# 
# Disc length: 2427
# 
# Revision: 1
# Processed by: cddbd v1.5.2PL0 Copyright (c) Steve Scherf et al.
# Submitted via: fre:ac v1.0.31
# 
DISCID=77097909
DTITLE=Monokel - Monokel (Amiga1)
DYEAR=1986
DGENRE=Blues
TTITLE0=Kindertraum
TTITLE1=Das Landei
TTITLE2=Paule Glotzmann
TTITLE3=Schwarze Marie
TTITLE4=Boogie Mobil
TTITLE5=Man schmiedet doch anders herum
TTITLE6=Bye Bye Lübben City
TTITLE7=Oma Krüger
TTITLE8=Das Monster vom Schilkinsee oder der Bär, der Frohsinn bringt
EXTD=
EXTT0=
EXTT1=
EXTT2=
EXTT3=
EXTT4=
EXTT5=
EXTT6=
EXTT7=
EXTT8=
PLAYORDER=
